<?xml version="1.0" encoding="UTF-8"?>
<svg xmlns="http://www.w3.org/2000/svg" width="49px" height="64px" viewBox="0 0 13 16" version="1.0" style="shape-rendering:geometricPrecision; text-rendering:geometricPrecision; image-rendering:optimizeQuality; fill-rule:evenodd; clip-rule:evenodd">
  <g>
    <!-- Основной прямоугольник с заливкой -->
    <path
      fill="#E6E6E6"
      fill-opacity="0.4"
      d="M2 0l9 0c1,0 2,1 2,2l0 13c0,1 -1,2 -2,2l-9 0c-1,0 -2,-1 -2,-2l0 -13c0,-1 1,-2 2,-2zm2 4l6 0c0,0 1,0 1,1l0 5c0,0 0,1 -1,1l-6 0c0,0 -1,0 -1,-1l0 -5c0,0 0,-1 1,-1z"
    />
    <!-- Обводка -->
    <path
      fill="none"
      d="M2 0l9 0c1,0 2,1 2,2l0 13c0,1 -1,2 -2,2l-9 0c-1,0 -2,-1 -2,-2l0 -13c0,-1 1,-2 2,-2zm2 4l6 0c0,0 1,0 1,1l0 5c0,0 0,1 -1,1l-6 0c0,0 -1,0 -1,-1l0 -5c0,0 0,-1 1,-1z"
    />
  </g>
</svg>
