<?xml version="1.0" encoding="UTF-8"?>
<svg xmlns="http://www.w3.org/2000/svg" width="49px" height="64px" viewBox="0 0 31 41" version="1.0" style="shape-rendering:geometricPrecision; text-rendering:geometricPrecision; image-rendering:optimizeQuality; fill-rule:evenodd; clip-rule:evenodd">
  <g>
    <!-- Основной прямоугольник с заливкой -->
    <path
      fill="#E6E6E6"
      fill-opacity="0.4"
      d="M4 0l22 0c2,0 4,2 4,4l0 32c0,2 -2,4 -4,4l-22 0c-2,0 -4,-2 -4,-4l0 -32c0,-2 2,-4 4,-4zm4 10l15 0c1,0 1,1 1,1l0 8c0,1 -1,1 -1,1l-15 0c-1,0 -1,-1 -1,-1l0 -8c0,-1 1,-1 1,-1z"
    />
    <!-- Обводка -->
    <path
      fill="none"
      d="M4 0l22 0c2,0 4,2 4,4l0 32c0,2 -2,4 -4,4l-22 0c-2,0 -4,-2 -4,-4l0 -32c0,-2 2,-4 4,-4zm4 10l15 0c1,0 1,1 1,1l0 8c0,1 -1,1 -1,1l-15 0c-1,0 -1,-1 -1,-1l0 -8c0,-1 1,-1 1,-1z"
    />
  </g>
</svg>
