<?xml version="1.0" encoding="UTF-8"?>
<svg xmlns="http://www.w3.org/2000/svg" xml:space="preserve" width="49px" height="64px" version="1.1" style="shape-rendering:geometricPrecision; text-rendering:geometricPrecision; image-rendering:optimizeQuality; fill-rule:evenodd; clip-rule:evenodd" viewBox="0 0 66 85">
  <g id="Layer_x0020_1">
    <metadata id="CorelCorpID_0Corel-Layer" />
    <g>
      <path fill="#E6E6E6" fill-opacity="0.4" d="M9 0l47 0c5,0 9,4 9,9l0 67c0,5 -4,9 -9,9l-47 0c-5,0 -9,-4 -9,-9l0 -67c0,-5 4,-9 9,-9zm8 21l31 0c2,0 3,1 3,3l0 3c0,2 -1,3 -3,3l-31 0c-2,0 -3,-1 -3,-3l0 -3c0,-2 1,-3 3,-3z" />
      <path id="1" fill="none"  d="M9 0l47 0c5,0 9,4 9,9l0 67c0,5 -4,9 -9,9l-47 0c-5,0 -9,-4 -9,-9l0 -67c0,-5 4,-9 9,-9zm8 21l31 0c2,0 3,1 3,3l0 3c0,2 -1,3 -3,3l-31 0c-2,0 -3,-1 -3,-3l0 -3c0,-2 1,-3 3,-3z" />
    </g>
  </g>
</svg>
