<!DOCTYPE svg PUBLIC "-//W3C//DTD SVG 1.1//EN" "http://www.w3.org/Graphics/SVG/1.1/DTD/svg11.dtd">

<!-- Uploaded to: SVG Repo, www.svgrepo.com, Transformed by: SVG Repo Mixer Tools -->
<svg width="40px" height="40px" viewBox="0 0 24 24" fill="none" xmlns="http://www.w3.org/2000/svg">

<g id="SVGRepo_bgCarrier" stroke-width="0"/>

<g id="SVGRepo_tracerCarrier" stroke-linecap="round" stroke-linejoin="round"/>

<g id="SVGRepo_iconCarrier"> <path d="M18.5 12C18.5 13.3807 17.3807 14.5 16 14.5C14.6193 14.5 13.5 13.3807 13.5 12C13.5 10.6193 14.6193 9.5 16 9.5C17.3807 9.5 18.5 10.6193 18.5 12Z" stroke="#ffffff" stroke-width="1.176"/> <path d="M22 12C22 17.5228 17.5228 22 12 22C6.47715 22 2 17.5228 2 12C2 6.47715 6.47715 2 12 2C17.5228 2 22 6.47715 22 12Z" stroke="#ffffff" stroke-width="1.176"/> <path d="M10.5 12C10.5 13.3807 9.38071 14.5 8 14.5C6.61929 14.5 5.5 13.3807 5.5 12C5.5 10.6193 6.61929 9.5 8 9.5C9.38071 9.5 10.5 10.6193 10.5 12Z" stroke="#ffffff" stroke-width="1.176"/> <path d="M8 14.5H16" stroke="#ffffff" stroke-width="1.176" stroke-linecap="round"/> </g>

</svg>